PathFileType	4	(X/Y/Z)	c:/Users/goper/Files/vsCode/490R/osim_files/C04/C04_Static.trc
DataRate	CameraRate	NumFrames	NumMarkers	Units                	OrigDataRate	OrigDataStartFrame	OrigNumFrames
250.00	250.00	10	36	mm	250.0	723	1445
                Frame#	Time	LPSIS			LASIS			LTH1			LTH2			LTH3			LTH4			LLFE			LMFE			LSH1			LSH2			LSH3			LSH4			LLMAL			LMMAL			LCAL			LMTP5			LTOE			LMTP1			RPSIS			RASIS			RTH1			RTH2			RTH3			RTH4			RLFE			RMFE			RSH1			RSH2			RSH3			RSH4			RLMAL			RMMAL			RCAL			RMTP1			RTOE			RMTP5		
		X1	Y1	Z1	X2	Y2	Z2	X3	Y3	Z3	X4	Y4	Z4	X5	Y5	Z5	X6	Y6	Z6	X7	Y7	Z7	X8	Y8	Z8	X9	Y9	Z9	X10	Y10	Z10	X11	Y11	Z11	X12	Y12	Z12	X13	Y13	Z13	X14	Y14	Z14	X15	Y15	Z15	X16	Y16	Z16	X17	Y17	Z17	X18	Y18	Z18	X19	Y19	Z19	X20	Y20	Z20	X21	Y21	Z21	X22	Y22	Z22	X23	Y23	Z23	X24	Y24	Z24	X25	Y25	Z25	X26	Y26	Z26	X27	Y27	Z27	X28	Y28	Z28	X29	Y29	Z29	X30	Y30	Z30	X31	Y31	Z31	X32	Y32	Z32	X33	Y33	Z33	X34	Y34	Z34	X35	Y35	Z35	X36	Y36	Z36

723	2.88800	-356.43320	977.91443	416.10364	-190.43756	962.80725	339.13452	-325.98419	730.30420	277.71231	-321.95779	668.41669	281.89236	-261.24426	740.29736	264.39825	-247.32176	678.90643	267.47290	-299.12958	463.17950	280.01575	-283.25696	437.04892	393.16357	-362.87012	363.92023	268.41589	-371.33316	316.73151	267.40131	-311.54385	361.52234	258.05679	-311.86096	314.34125	255.20879	-347.86182	76.95078	252.41873	-324.21649	91.06296	343.51999	-404.86691	48.31587	312.82449	-220.32423	21.58084	210.52779	-186.41141	47.60692	258.17581	-205.98552	21.56862	317.28589	-355.89691	980.54388	490.66690	-186.57611	958.42169	552.63373	-313.87665	747.87427	633.90436	-316.43616	684.60510	630.16327	-249.62292	751.39856	637.30048	-238.84300	689.92249	635.47040	-284.71533	465.94229	620.00055	-285.62897	448.30542	508.36566	-362.43890	339.48596	645.51990	-356.23633	294.41589	647.61938	-300.98499	340.49753	648.45428	-303.70200	293.56760	652.24683	-336.50964	80.51577	648.24536	-314.24979	87.65439	559.06641	-392.18439	48.14054	594.62299	-190.25563	31.29443	586.35858	-166.70406	47.37771	635.55115	-209.18726	17.96507	690.73145
724	2.89200	-356.46899	977.94336	416.12158	-190.42754	962.82031	339.12457	-325.98685	730.33716	277.69516	-321.68585	668.42352	281.53583	-261.27649	740.27289	264.41876	-247.31050	678.92291	267.46164	-299.10968	463.17612	279.99805	-283.25800	437.04330	393.16309	-362.81967	363.90085	268.39941	-371.32861	316.74500	267.41235	-311.59598	361.50201	258.07779	-311.86029	314.32697	255.23447	-347.82721	76.96225	252.41196	-324.19211	91.07767	343.51541	-404.86389	48.34826	312.82281	-220.32526	21.57982	210.54361	-186.39140	47.61543	258.16809	-205.95126	21.56601	317.28342	-355.84549	980.56427	490.71088	-186.57695	958.41260	552.59705	-313.81107	747.89252	633.90057	-316.41821	684.61670	630.15955	-249.55177	751.41901	637.28778	-238.82314	689.90839	635.44598	-284.64999	465.94116	620.01099	-285.64450	448.26215	508.38403	-362.34824	339.51022	645.56616	-356.15228	294.42163	647.62201	-300.89890	340.48105	648.41382	-303.69269	293.53751	652.21301	-336.50238	80.50642	648.23145	-314.23013	87.66657	559.06696	-392.14618	48.16200	594.59198	-190.22816	31.30930	586.34113	-166.71338	47.37318	635.56024	-209.14949	17.97457	690.73956
725	2.89600	-356.43634	977.94171	416.19397	-190.46622	962.79144	339.10968	-326.00027	730.34241	277.66455	-321.69717	668.42126	281.58176	-261.28354	740.26691	264.39749	-247.34641	678.90161	267.46246	-299.09998	463.18320	280.00906	-283.25186	437.00320	393.14230	-362.83337	363.90610	268.42218	-371.36078	316.71277	267.45367	-311.58307	361.49103	258.07568	-311.84283	314.31250	255.23433	-347.85455	76.92818	252.43854	-324.17670	91.06551	343.51242	-404.86926	48.33730	312.85010	-220.34363	21.56475	210.54991	-186.37813	47.62181	258.18454	-205.93304	21.56079	317.30237	-355.82239	980.50293	490.75748	-186.57726	958.39850	552.59576	-313.72937	747.90216	633.94910	-316.36710	684.61078	630.20123	-249.53111	751.40216	637.26190	-238.79237	689.88068	635.44818	-284.61029	465.94595	620.03577	-285.62228	448.26328	508.38403	-362.31860	339.50323	645.59338	-356.10498	294.42599	647.64789	-300.92847	340.45572	648.43500	-303.67441	293.51801	652.22894	-336.47467	80.49597	648.24603	-314.24774	87.63898	559.09119	-392.17432	48.18256	594.61206	-190.23180	31.31071	586.34479	-166.68912	47.37222	635.56036	-209.12839	17.95928	690.75684
726	2.90000	-356.43484	977.91962	416.29565	-190.47673	962.81653	339.10764	-326.01257	730.35638	277.71234	-321.97241	668.41882	281.91638	-261.31287	740.25519	264.41467	-247.38126	678.90295	267.45602	-299.09000	463.18607	280.00464	-283.23663	437.01575	393.15698	-362.83447	363.89453	268.45804	-371.35889	316.72244	267.47223	-311.56058	361.49918	258.06204	-311.87970	314.33426	255.23520	-347.84305	76.96824	252.42235	-324.19174	91.04677	343.54120	-404.84647	48.33164	312.89148	-220.32753	21.55536	210.54855	-186.40884	47.60424	258.20584	-205.94711	21.53716	317.31039	-355.84122	980.52948	490.80011	-186.62141	958.39709	552.60187	-313.74039	747.90619	633.98743	-316.40176	684.60181	630.22516	-249.56364	751.38470	637.28937	-238.79944	689.87903	635.44000	-284.62521	465.92755	620.06586	-285.61337	448.25989	508.40240	-362.34006	339.50082	645.64014	-356.16418	294.38562	647.66608	-300.93079	340.46619	648.45972	-303.71240	293.50836	652.26709	-336.52307	80.45684	648.24683	-314.23389	87.66464	559.09460	-392.20273	48.16666	594.67419	-190.23547	31.30240	586.36005	-166.70662	47.34417	635.57343	-209.17511	17.93251	690.77399
727	2.90400	-356.44977	977.92285	416.31976	-190.48393	962.80853	339.09433	-326.04575	730.33606	277.70300	-321.75558	668.37500	281.61115	-261.34244	740.25500	264.38293	-247.34509	678.93811	267.44684	-299.13681	463.16599	280.00644	-283.23462	437.00085	393.15787	-362.72375	363.97620	268.39127	-371.34784	316.72934	267.45547	-311.55676	361.50995	258.05609	-311.85260	314.33444	255.22723	-347.84967	76.93764	252.45183	-324.24936	91.01596	343.55975	-404.83511	48.30583	312.88025	-220.33397	21.57187	210.54799	-186.42598	47.59521	258.21811	-206.02853	21.49508	317.34814	-355.87598	980.54181	490.84552	-186.65775	958.37524	552.61041	-313.80716	747.81049	633.95532	-316.40271	684.57208	630.24042	-249.59079	751.31219	637.27905	-238.83376	689.84753	635.47345	-284.66498	465.88153	620.05786	-285.60184	448.26807	508.38898	-362.34381	339.47073	645.64569	-356.19080	294.33517	647.69489	-300.92456	340.44617	648.46838	-303.71286	293.45795	652.26544	-336.57175	80.40659	648.24457	-314.22745	87.66263	559.08405	-392.21457	48.11612	594.71356	-190.25813	31.28809	586.38617	-166.73430	47.32187	635.59698	-209.19829	17.91015	690.76294
728	2.90800	-356.48874	977.88379	416.37375	-190.51993	962.81335	339.10550	-326.06018	730.32562	277.71069	-321.75256	668.52667	281.44617	-261.36761	740.27789	264.38486	-247.41196	678.90942	267.45291	-299.11444	463.17850	280.00073	-283.24359	437.02573	393.17648	-362.90967	363.84711	268.53751	-371.36722	316.72531	267.48453	-311.58621	361.50134	258.06610	-311.85196	314.33157	255.23801	-347.83231	76.97943	252.40114	-324.25116	91.00934	343.56015	-404.84729	48.28115	312.87592	-220.32397	21.56764	210.53790	-186.42676	47.58188	258.22046	-206.03490	21.48026	317.36215	-355.86459	980.53290	490.84949	-186.66685	958.35754	552.63336	-313.84042	747.79816	633.97327	-316.39667	684.56525	630.25854	-249.61504	751.29681	637.30042	-238.81535	689.83472	635.48401	-284.67621	465.85162	620.05042	-285.57651	448.27518	508.40201	-362.31967	339.47598	645.68347	-356.21960	294.29135	647.71967	-300.93317	340.38562	648.50092	-303.71765	293.43668	652.25323	-336.57993	80.38697	648.27081	-314.24609	87.66159	559.09277	-392.24142	48.09056	594.76251	-190.24356	31.29551	586.38550	-166.74696	47.32119	635.61499	-209.21841	17.87808	690.77625
729	2.91200	-356.55176	977.88757	416.42645	-190.52277	962.81085	339.10013	-326.10260	730.32745	277.73730	-321.88541	668.60583	281.65460	-261.39273	740.25269	264.38696	-247.41837	678.91449	267.44827	-299.13278	463.15115	280.00577	-283.22516	437.02017	393.16858	-362.90640	363.86469	268.50900	-371.37268	316.69769	267.49191	-311.58051	361.50885	258.05475	-311.86792	314.33142	255.21545	-347.85617	76.93201	252.39906	-324.23453	91.01675	343.55930	-404.84985	48.26859	312.87491	-220.33255	21.56630	210.53159	-186.42662	47.57378	258.21255	-206.01611	21.49153	317.36493	-355.84143	980.50189	490.88065	-186.61356	958.39301	552.61432	-313.75330	747.78766	633.98425	-316.32953	684.55707	630.28351	-249.53047	751.32343	637.27802	-238.77437	689.85052	635.47937	-284.63956	465.82672	620.07190	-285.53000	448.29642	508.41034	-362.28226	339.47086	645.71753	-356.10904	294.31122	647.72260	-300.86621	340.42886	648.50958	-303.69168	293.43515	652.27728	-336.53964	80.40160	648.26801	-314.23557	87.65305	559.09778	-392.21698	48.06337	594.74182	-190.27069	31.28831	586.37299	-166.73207	47.32066	635.61792	-209.21167	17.86795	690.76013
730	2.91600	-356.47067	977.83551	416.42484	-190.54903	962.80371	339.08499	-326.06418	730.33856	277.71704	-321.81760	668.49115	281.48932	-261.41177	740.25049	264.37500	-247.42323	678.91815	267.41992	-299.13855	463.14474	280.00058	-283.20761	437.05112	393.17627	-362.90109	363.84927	268.51083	-371.37592	316.70541	267.46313	-311.58768	361.49600	258.05521	-311.88080	314.32144	255.21744	-347.86124	76.96833	252.37613	-324.19855	91.03714	343.56201	-404.85284	48.27482	312.84869	-220.34636	21.54049	210.49101	-186.38405	47.60218	258.19537	-205.97456	21.49062	317.34662	-355.84262	980.52155	490.86292	-186.57698	958.40417	552.60876	-313.69199	747.78326	634.00751	-316.29071	684.52374	630.27057	-249.47578	751.30914	637.28986	-238.70915	689.86853	635.48059	-284.59900	465.85132	620.06500	-285.55676	448.30380	508.43079	-362.21466	339.44174	645.72900	-356.08807	294.30145	647.73370	-300.81857	340.46240	648.52179	-303.63651	293.42972	652.26666	-336.52441	80.40356	648.27667	-314.20758	87.67413	559.08917	-392.21075	48.07021	594.74976	-190.22905	31.28506	586.36725	-166.71588	47.32541	635.60315	-209.14667	17.88768	690.76929
731	2.92000	-356.48917	977.86639	416.39691	-190.59073	962.79407	339.07346	-326.13617	730.28387	277.72931	-321.82486	668.50793	281.47888	-261.42786	740.26190	264.38098	-247.42720	678.92786	267.41687	-299.13708	463.13751	280.00116	-283.18063	437.05411	393.17441	-362.88797	363.84476	268.50949	-371.35550	316.69568	267.46045	-311.60043	361.48608	258.04147	-311.87006	314.30743	255.20253	-347.88754	76.92173	252.37073	-324.19800	91.03230	343.56635	-404.84891	48.26021	312.84296	-220.33873	21.54262	210.51003	-186.39166	47.57538	258.19009	-205.98029	21.49024	317.35504	-355.85150	980.48914	490.87271	-186.56985	958.39886	552.60809	-313.64584	747.78949	634.02795	-316.24023	684.53650	630.29407	-249.43134	751.33398	637.29950	-238.69592	689.87817	635.49872	-284.55194	465.84009	620.07996	-285.52060	448.31036	508.43442	-362.20804	339.45197	645.73773	-356.04333	294.30338	647.75909	-300.80942	340.46680	648.55255	-303.65002	293.42795	652.27466	-336.52191	80.40246	648.25427	-314.24500	87.64452	559.08496	-392.19293	48.02197	594.70453	-190.24765	31.25095	586.38531	-166.70435	47.30490	635.60950	-209.16972	17.88338	690.77350
732	2.92400	-356.51965	977.89471	416.41989	-190.60590	962.78632	339.05176	-326.16922	730.30402	277.72256	-321.90002	668.34827	281.68536	-261.46417	740.24585	264.36084	-247.47469	678.93353	267.41870	-299.15659	463.10989	279.98395	-283.18628	437.05017	393.16714	-362.83875	363.84052	268.44650	-371.36124	316.65787	267.45575	-311.62708	361.48016	258.04990	-311.89230	314.29865	255.20158	-347.87659	76.95699	252.35048	-324.21405	91.03037	343.57016	-404.85754	48.22423	312.81815	-220.32814	21.54869	210.51006	-186.39084	47.57833	258.17862	-206.00772	21.48533	317.34311	-355.81461	980.53510	490.89236	-186.59286	958.39069	552.57574	-313.61319	747.80054	634.05316	-316.25461	684.50616	630.29205	-249.45137	751.32373	637.27789	-238.68155	689.87903	635.48218	-284.54431	465.86142	620.07794	-285.51923	448.29764	508.43225	-362.22394	339.44998	645.75348	-356.06696	294.29111	647.77551	-300.81967	340.42609	648.55188	-303.64288	293.41846	652.28125	-336.54135	80.39975	648.26392	-314.26175	87.63280	559.07526	-392.20477	48.01103	594.68915	-190.26520	31.24532	586.36090	-166.70639	47.30856	635.59393	-209.17299	17.89424	690.78534
